<svg width="24" height="24" viewBox="0 0 24 24" fill="none" xmlns="http://www.w3.org/2000/svg">
<g clip-path="url(#clip0_8753_75513)">
<path d="M22.8103 12.749L13.5 3.43872C13.3612 3.29882 13.196 3.18791 13.014 3.11243C12.832 3.03695 12.6368 2.9984 12.4397 2.99903H3.75001C3.5511 2.99903 3.36033 3.07805 3.21968 3.2187C3.07903 3.35935 3.00001 3.55012 3.00001 3.74903V12.4387C2.99938 12.6358 3.03792 12.831 3.11341 13.013C3.18889 13.195 3.2998 13.3602 3.43969 13.499L12.75 22.8093C12.8893 22.9487 13.0547 23.0592 13.2367 23.1346C13.4187 23.21 13.6138 23.2488 13.8108 23.2488C14.0078 23.2488 14.2029 23.21 14.3849 23.1346C14.5669 23.0592 14.7323 22.9487 14.8716 22.8093L22.8103 14.8706C22.9496 14.7313 23.0602 14.5659 23.1356 14.3839C23.211 14.2019 23.2498 14.0068 23.2498 13.8098C23.2498 13.6128 23.211 13.4177 23.1356 13.2357C23.0602 13.0537 22.9496 12.8883 22.8103 12.749ZM13.8103 21.749L4.50001 12.4387V4.49903H12.4397L21.75 13.8093L13.8103 21.749ZM9.00001 7.87403C9.00001 8.09653 8.93403 8.31404 8.81041 8.49905C8.68679 8.68405 8.51109 8.82825 8.30553 8.9134C8.09996 8.99854 7.87376 9.02082 7.65553 8.97741C7.4373 8.93401 7.23685 8.82686 7.07951 8.66953C6.92218 8.51219 6.81503 8.31174 6.77162 8.09351C6.72822 7.87528 6.75049 7.64908 6.83564 7.44351C6.92079 7.23795 7.06499 7.06224 7.24999 6.93863C7.435 6.81501 7.6525 6.74903 7.87501 6.74903C8.17338 6.74903 8.45952 6.86756 8.6705 7.07854C8.88148 7.28951 9.00001 7.57566 9.00001 7.87403Z" fill="#212121"/>
</g>
<defs>
<clipPath id="clip0_8753_75513">
<rect width="24" height="24" fill="white" transform="translate(0 -0.000976562)"/>
</clipPath>
</defs>
</svg>
